<svg width="45" height="15" viewBox="0 0 45 15" fill="none" xmlns="http://www.w3.org/2000/svg">
<path d="M0.456 4.32V3.324H2.712V12H1.608V4.32H0.456ZM8.84775 0.696L5.55975 14.04H4.47975L7.75575 0.696H8.84775ZM10.1628 11.124C11.1788 10.308 11.9748 9.64 12.5508 9.12C13.1268 8.592 13.6108 8.044 14.0028 7.476C14.4028 6.9 14.6028 6.336 14.6028 5.784C14.6028 5.264 14.4748 4.856 14.2188 4.56C13.9708 4.256 13.5668 4.104 13.0068 4.104C12.4628 4.104 12.0388 4.276 11.7348 4.62C11.4388 4.956 11.2788 5.408 11.2548 5.976H10.1988C10.2308 5.08 10.5028 4.388 11.0148 3.9C11.5268 3.412 12.1868 3.168 12.9948 3.168C13.8188 3.168 14.4708 3.396 14.9508 3.852C15.4388 4.308 15.6828 4.936 15.6828 5.736C15.6828 6.4 15.4828 7.048 15.0828 7.68C14.6908 8.304 14.2428 8.856 13.7388 9.336C13.2348 9.808 12.5908 10.36 11.8068 10.992H15.9348V11.904H10.1628V11.124ZM17.1971 7.572C17.1971 6.196 17.4211 5.124 17.8691 4.356C18.3171 3.58 19.1011 3.192 20.2211 3.192C21.3331 3.192 22.1131 3.58 22.5611 4.356C23.0091 5.124 23.2331 6.196 23.2331 7.572C23.2331 8.972 23.0091 10.06 22.5611 10.836C22.1131 11.612 21.3331 12 20.2211 12C19.1011 12 18.3171 11.612 17.8691 10.836C17.4211 10.06 17.1971 8.972 17.1971 7.572ZM22.1531 7.572C22.1531 6.876 22.1051 6.288 22.0091 5.808C21.9211 5.32 21.7331 4.928 21.4451 4.632C21.1651 4.336 20.7571 4.188 20.2211 4.188C19.6771 4.188 19.2611 4.336 18.9731 4.632C18.6931 4.928 18.5051 5.32 18.4091 5.808C18.3211 6.288 18.2771 6.876 18.2771 7.572C18.2771 8.292 18.3211 8.896 18.4091 9.384C18.5051 9.872 18.6931 10.264 18.9731 10.56C19.2611 10.856 19.6771 11.004 20.2211 11.004C20.7571 11.004 21.1651 10.856 21.4451 10.56C21.7331 10.264 21.9211 9.872 22.0091 9.384C22.1051 8.896 22.1531 8.292 22.1531 7.572ZM24.7323 7.572C24.7323 6.196 24.9563 5.124 25.4043 4.356C25.8523 3.58 26.6363 3.192 27.7563 3.192C28.8683 3.192 29.6483 3.58 30.0963 4.356C30.5443 5.124 30.7683 6.196 30.7683 7.572C30.7683 8.972 30.5443 10.06 30.0963 10.836C29.6483 11.612 28.8683 12 27.7563 12C26.6363 12 25.8523 11.612 25.4043 10.836C24.9563 10.06 24.7323 8.972 24.7323 7.572ZM29.6883 7.572C29.6883 6.876 29.6403 6.288 29.5443 5.808C29.4563 5.32 29.2683 4.928 28.9803 4.632C28.7003 4.336 28.2923 4.188 27.7563 4.188C27.2123 4.188 26.7963 4.336 26.5083 4.632C26.2283 4.928 26.0403 5.32 25.9443 5.808C25.8563 6.288 25.8123 6.876 25.8123 7.572C25.8123 8.292 25.8563 8.896 25.9443 9.384C26.0403 9.872 26.2283 10.264 26.5083 10.56C26.7963 10.856 27.2123 11.004 27.7563 11.004C28.2923 11.004 28.7003 10.856 28.9803 10.56C29.2683 10.264 29.4563 9.872 29.5443 9.384C29.6403 8.896 29.6883 8.292 29.6883 7.572ZM32.2674 7.572C32.2674 6.196 32.4914 5.124 32.9394 4.356C33.3874 3.58 34.1714 3.192 35.2914 3.192C36.4034 3.192 37.1834 3.58 37.6314 4.356C38.0794 5.124 38.3034 6.196 38.3034 7.572C38.3034 8.972 38.0794 10.06 37.6314 10.836C37.1834 11.612 36.4034 12 35.2914 12C34.1714 12 33.3874 11.612 32.9394 10.836C32.4914 10.06 32.2674 8.972 32.2674 7.572ZM37.2234 7.572C37.2234 6.876 37.1754 6.288 37.0794 5.808C36.9914 5.32 36.8034 4.928 36.5154 4.632C36.2354 4.336 35.8274 4.188 35.2914 4.188C34.7474 4.188 34.3314 4.336 34.0434 4.632C33.7634 4.928 33.5754 5.32 33.4794 5.808C33.3914 6.288 33.3474 6.876 33.3474 7.572C33.3474 8.292 33.3914 8.896 33.4794 9.384C33.5754 9.872 33.7634 10.264 34.0434 10.56C34.3314 10.856 34.7474 11.004 35.2914 11.004C35.8274 11.004 36.2354 10.856 36.5154 10.56C36.8034 10.264 36.9914 9.872 37.0794 9.384C37.1754 8.896 37.2234 8.292 37.2234 7.572ZM42.3106 12.108C41.8066 12.108 41.3546 12.024 40.9546 11.856C40.5546 11.68 40.2386 11.44 40.0066 11.136C39.7746 10.824 39.6466 10.468 39.6226 10.068H40.7506C40.7826 10.396 40.9346 10.664 41.2066 10.872C41.4866 11.08 41.8506 11.184 42.2986 11.184C42.7146 11.184 43.0426 11.092 43.2826 10.908C43.5226 10.724 43.6426 10.492 43.6426 10.212C43.6426 9.924 43.5146 9.712 43.2586 9.576C43.0026 9.432 42.6066 9.292 42.0706 9.156C41.5826 9.028 41.1826 8.9 40.8706 8.772C40.5666 8.636 40.3026 8.44 40.0786 8.184C39.8626 7.92 39.7546 7.576 39.7546 7.152C39.7546 6.816 39.8546 6.508 40.0546 6.228C40.2546 5.948 40.5386 5.728 40.9066 5.568C41.2746 5.4 41.6946 5.316 42.1666 5.316C42.8946 5.316 43.4826 5.5 43.9306 5.868C44.3786 6.236 44.6186 6.74 44.6506 7.38H43.5586C43.5346 7.036 43.3946 6.76 43.1386 6.552C42.8906 6.344 42.5546 6.24 42.1306 6.24C41.7386 6.24 41.4266 6.324 41.1946 6.492C40.9626 6.66 40.8466 6.88 40.8466 7.152C40.8466 7.368 40.9146 7.548 41.0506 7.692C41.1946 7.828 41.3706 7.94 41.5786 8.028C41.7946 8.108 42.0906 8.2 42.4666 8.304C42.9386 8.432 43.3226 8.56 43.6186 8.688C43.9146 8.808 44.1666 8.992 44.3746 9.24C44.5906 9.488 44.7026 9.812 44.7106 10.212C44.7106 10.572 44.6106 10.896 44.4106 11.184C44.2106 11.472 43.9266 11.7 43.5586 11.868C43.1986 12.028 42.7826 12.108 42.3106 12.108Z" fill="white"/>
</svg>