<svg width="17" height="15" viewBox="0 0 17 15" fill="none" xmlns="http://www.w3.org/2000/svg">
<path d="M3.6 6.324H2.22V12H1.128V6.324H0.276V5.424H1.128V4.956C1.128 4.22 1.316 3.684 1.692 3.348C2.076 3.004 2.688 2.832 3.528 2.832V3.744C3.048 3.744 2.708 3.84 2.508 4.032C2.316 4.216 2.22 4.524 2.22 4.956V5.424H3.6V6.324ZM8.95322 0.696L5.66522 14.04H4.58522L7.86122 0.696H8.95322ZM10.1123 4.32V3.324H12.3683V12H11.2643V4.32H10.1123ZM13.956 4.32V3.324H16.212V12H15.108V4.32H13.956Z" fill="white"/>
</svg>
