<svg width="19" height="9" viewBox="0 0 19 9" fill="none" xmlns="http://www.w3.org/2000/svg">
<path d="M0.456 1.32V0.323999H2.712V9H1.608V1.32H0.456ZM4.58775 4.572C4.58775 3.196 4.81175 2.124 5.25975 1.356C5.70775 0.58 6.49175 0.192 7.61175 0.192C8.72375 0.192 9.50375 0.58 9.95175 1.356C10.3997 2.124 10.6237 3.196 10.6237 4.572C10.6237 5.972 10.3997 7.06 9.95175 7.836C9.50375 8.612 8.72375 9 7.61175 9C6.49175 9 5.70775 8.612 5.25975 7.836C4.81175 7.06 4.58775 5.972 4.58775 4.572ZM9.54375 4.572C9.54375 3.876 9.49575 3.288 9.39975 2.808C9.31175 2.32 9.12375 1.928 8.83575 1.632C8.55575 1.336 8.14775 1.188 7.61175 1.188C7.06775 1.188 6.65175 1.336 6.36375 1.632C6.08375 1.928 5.89575 2.32 5.79975 2.808C5.71175 3.288 5.66775 3.876 5.66775 4.572C5.66775 5.292 5.71175 5.896 5.79975 6.384C5.89575 6.872 6.08375 7.264 6.36375 7.56C6.65175 7.856 7.06775 8.004 7.61175 8.004C8.14775 8.004 8.55575 7.856 8.83575 7.56C9.12375 7.264 9.31175 6.872 9.39975 6.384C9.49575 5.896 9.54375 5.292 9.54375 4.572ZM12.1229 4.572C12.1229 3.196 12.3469 2.124 12.7949 1.356C13.2429 0.58 14.0269 0.192 15.1469 0.192C16.2589 0.192 17.0389 0.58 17.4869 1.356C17.9349 2.124 18.1589 3.196 18.1589 4.572C18.1589 5.972 17.9349 7.06 17.4869 7.836C17.0389 8.612 16.2589 9 15.1469 9C14.0269 9 13.2429 8.612 12.7949 7.836C12.3469 7.06 12.1229 5.972 12.1229 4.572ZM17.0789 4.572C17.0789 3.876 17.0309 3.288 16.9349 2.808C16.8469 2.32 16.6589 1.928 16.3709 1.632C16.0909 1.336 15.6829 1.188 15.1469 1.188C14.6029 1.188 14.1869 1.336 13.8989 1.632C13.6189 1.928 13.4309 2.32 13.3349 2.808C13.2469 3.288 13.2029 3.876 13.2029 4.572C13.2029 5.292 13.2469 5.896 13.3349 6.384C13.4309 6.872 13.6189 7.264 13.8989 7.56C14.1869 7.856 14.6029 8.004 15.1469 8.004C15.6829 8.004 16.0909 7.856 16.3709 7.56C16.6589 7.264 16.8469 6.872 16.9349 6.384C17.0309 5.896 17.0789 5.292 17.0789 4.572Z" fill="white"/>
</svg>