<svg width="44" height="10" viewBox="0 0 44 10" fill="none" xmlns="http://www.w3.org/2000/svg">
<path d="M2.016 0.636V9H0.924V0.636H2.016ZM3.46913 5.7C3.46913 5.02 3.60513 4.428 3.87713 3.924C4.14913 3.412 4.52513 3.016 5.00513 2.736C5.49313 2.456 6.04913 2.316 6.67313 2.316C7.48113 2.316 8.14513 2.512 8.66513 2.904C9.19313 3.296 9.54113 3.84 9.70913 4.536H8.53313C8.42113 4.136 8.20113 3.82 7.87313 3.588C7.55313 3.356 7.15313 3.24 6.67313 3.24C6.04913 3.24 5.54513 3.456 5.16113 3.888C4.77713 4.312 4.58513 4.916 4.58513 5.7C4.58513 6.492 4.77713 7.104 5.16113 7.536C5.54513 7.968 6.04913 8.184 6.67313 8.184C7.15313 8.184 7.55313 8.072 7.87313 7.848C8.19313 7.624 8.41313 7.304 8.53313 6.888H9.70913C9.53313 7.56 9.18113 8.1 8.65313 8.508C8.12513 8.908 7.46513 9.108 6.67313 9.108C6.04913 9.108 5.49313 8.968 5.00513 8.688C4.52513 8.408 4.14913 8.012 3.87713 7.5C3.60513 6.988 3.46913 6.388 3.46913 5.7ZM17.1662 5.46C17.1662 5.668 17.1542 5.888 17.1302 6.12H11.8742C11.9142 6.768 12.1342 7.276 12.5342 7.644C12.9422 8.004 13.4342 8.184 14.0102 8.184C14.4822 8.184 14.8742 8.076 15.1862 7.86C15.5062 7.636 15.7302 7.34 15.8582 6.972H17.0342C16.8582 7.604 16.5062 8.12 15.9782 8.52C15.4502 8.912 14.7942 9.108 14.0102 9.108C13.3862 9.108 12.8262 8.968 12.3302 8.688C11.8422 8.408 11.4582 8.012 11.1782 7.5C10.8982 6.98 10.7582 6.38 10.7582 5.7C10.7582 5.02 10.8942 4.424 11.1662 3.912C11.4382 3.4 11.8182 3.008 12.3062 2.736C12.8022 2.456 13.3702 2.316 14.0102 2.316C14.6342 2.316 15.1862 2.452 15.6662 2.724C16.1462 2.996 16.5142 3.372 16.7702 3.852C17.0342 4.324 17.1662 4.86 17.1662 5.46ZM16.0382 5.232C16.0382 4.816 15.9462 4.46 15.7622 4.164C15.5782 3.86 15.3262 3.632 15.0062 3.48C14.6942 3.32 14.3462 3.24 13.9622 3.24C13.4102 3.24 12.9382 3.416 12.5462 3.768C12.1622 4.12 11.9422 4.608 11.8862 5.232H16.0382ZM19.6996 0.12V9H18.6076V0.12H19.6996ZM21.1527 5.688C21.1527 5.016 21.2887 4.428 21.5607 3.924C21.8327 3.412 22.2047 3.016 22.6767 2.736C23.1567 2.456 23.6887 2.316 24.2727 2.316C24.8487 2.316 25.3487 2.44 25.7727 2.688C26.1967 2.936 26.5127 3.248 26.7207 3.624V2.424H27.8247V9H26.7207V7.776C26.5047 8.16 26.1807 8.48 25.7487 8.736C25.3247 8.984 24.8287 9.108 24.2607 9.108C23.6767 9.108 23.1487 8.964 22.6767 8.676C22.2047 8.388 21.8327 7.984 21.5607 7.464C21.2887 6.944 21.1527 6.352 21.1527 5.688ZM26.7207 5.7C26.7207 5.204 26.6207 4.772 26.4207 4.404C26.2207 4.036 25.9487 3.756 25.6047 3.564C25.2687 3.364 24.8967 3.264 24.4887 3.264C24.0807 3.264 23.7087 3.36 23.3727 3.552C23.0367 3.744 22.7687 4.024 22.5687 4.392C22.3687 4.76 22.2687 5.192 22.2687 5.688C22.2687 6.192 22.3687 6.632 22.5687 7.008C22.7687 7.376 23.0367 7.66 23.3727 7.86C23.7087 8.052 24.0807 8.148 24.4887 8.148C24.8967 8.148 25.2687 8.052 25.6047 7.86C25.9487 7.66 26.2207 7.376 26.4207 7.008C26.6207 6.632 26.7207 6.196 26.7207 5.7ZM32.8741 2.304C33.6741 2.304 34.3221 2.548 34.8181 3.036C35.3141 3.516 35.5621 4.212 35.5621 5.124V9H34.4821V5.28C34.4821 4.624 34.3181 4.124 33.9901 3.78C33.6621 3.428 33.2141 3.252 32.6461 3.252C32.0701 3.252 31.6101 3.432 31.2661 3.792C30.9301 4.152 30.7621 4.676 30.7621 5.364V9H29.6701V2.424H30.7621V3.36C30.9781 3.024 31.2701 2.764 31.6381 2.58C32.0141 2.396 32.4261 2.304 32.8741 2.304ZM36.9379 5.688C36.9379 5.016 37.0739 4.428 37.3459 3.924C37.6179 3.412 37.9899 3.016 38.4619 2.736C38.9419 2.456 39.4779 2.316 40.0699 2.316C40.5819 2.316 41.0579 2.436 41.4979 2.676C41.9379 2.908 42.2739 3.216 42.5059 3.6V0.12H43.6099V9H42.5059V7.764C42.2899 8.156 41.9699 8.48 41.5459 8.736C41.1219 8.984 40.6259 9.108 40.0579 9.108C39.4739 9.108 38.9419 8.964 38.4619 8.676C37.9899 8.388 37.6179 7.984 37.3459 7.464C37.0739 6.944 36.9379 6.352 36.9379 5.688ZM42.5059 5.7C42.5059 5.204 42.4059 4.772 42.2059 4.404C42.0059 4.036 41.7339 3.756 41.3899 3.564C41.0539 3.364 40.6819 3.264 40.2739 3.264C39.8659 3.264 39.4939 3.36 39.1579 3.552C38.8219 3.744 38.5539 4.024 38.3539 4.392C38.1539 4.76 38.0539 5.192 38.0539 5.688C38.0539 6.192 38.1539 6.632 38.3539 7.008C38.5539 7.376 38.8219 7.66 39.1579 7.86C39.4939 8.052 39.8659 8.148 40.2739 8.148C40.6819 8.148 41.0539 8.052 41.3899 7.86C41.7339 7.66 42.0059 7.376 42.2059 7.008C42.4059 6.632 42.5059 6.196 42.5059 5.7Z" fill="white"/>
</svg>
